<?xml version="1.0" encoding="UTF-8"?>
<svg version="1.1" xmlns="http://www.w3.org/2000/svg" width="512" height="512">
<path d="M0 0 C21.73698073 10.22752811 32.5590086 33.45795021 40.50390625 54.87109375 C43.89361904 64.39464522 46.4510544 74.06389486 48.609375 83.93359375 C48.92479248 85.35744385 48.92479248 85.35744385 49.24658203 86.81005859 C51.83877796 98.93775911 52.99110602 110.84361993 53.109375 123.24609375 C53.12790527 124.44379395 53.14643555 125.64149414 53.16552734 126.87548828 C53.07512623 139.52278175 48.90318251 151.30750447 40.09375 160.58203125 C38.21128348 162.41717319 36.3231412 164.246509 34.4296875 166.0703125 C27.40585298 173.01012986 18.71141737 182.75509173 18.1484375 193.05078125 C18.61246044 230.37393965 21.5516085 267.63525508 24.39691162 304.83300781 C25.12979865 314.43000485 25.85216443 324.02780016 26.57491875 333.62556458 C26.8238385 336.91894786 27.07548008 340.21211336 27.32765198 343.50524902 C28.65767441 360.9713363 29.81850049 378.40019197 29.90454102 395.92260742 C29.91618634 397.56755081 29.93682993 399.21245292 29.96606445 400.85717773 C30.18009624 413.00676978 29.71360222 424.07710118 21.609375 433.93359375 C12.78683071 443.02294886 4.15941502 446.98342997 -8.43432617 447.17529297 C-21.99796699 447.21787897 -32.11295939 445.68777063 -42.3671875 436.08203125 C-56.10263179 421.41140777 -52.97449055 400.67358381 -52.49609375 382.05871582 C-51.79636333 361.32515275 -49.96481516 340.61483587 -48.390625 319.93359375 C-48.28345057 318.52331672 -48.17629336 317.11303839 -48.06915283 315.70275879 C-47.85061731 312.82700606 -47.63193801 309.95126431 -47.41314697 307.07553101 C-46.91746302 300.55989561 -46.42238557 294.04421475 -45.92900848 287.52840424 C-45.82018421 286.0914919 -45.71126207 284.65458697 -45.60224152 283.21768951 C-43.82655646 259.80210717 -42.22426902 236.39114393 -41.45635986 212.9175415 C-41.39330135 211.01436879 -41.32350873 209.1114228 -41.25341797 207.20849609 C-41.14647739 204.07500301 -41.0708479 200.94336903 -41.015625 197.80859375 C-40.98944092 196.98512451 -40.96325684 196.16165527 -40.9362793 195.31323242 C-40.89513458 181.19145235 -53.8481028 169.63583995 -63.05078125 160.23828125 C-76.16965209 146.31478633 -76.0938715 129.79740529 -75.56982422 111.75097656 C-75.1267563 102.31254329 -73.43516594 93.14180782 -71.390625 83.93359375 C-71.06916504 82.47614746 -71.06916504 82.47614746 -70.74121094 80.98925781 C-67.58560765 67.09449806 -63.19548387 53.94200331 -57.390625 40.93359375 C-57.0901123 40.25941406 -56.78959961 39.58523437 -56.47998047 38.890625 C-52.6771019 30.5162235 -48.11880375 23.11944026 -42.390625 15.93359375 C-41.52630859 14.82177734 -41.52630859 14.82177734 -40.64453125 13.6875 C-30.59186568 1.40606792 -15.55703619 -4.8929388 0 0 Z M-35.1640625 34.54296875 C-50.99237598 59.89691885 -58.5615323 92.77030275 -58.890625 122.37109375 C-58.90915527 123.39493164 -58.92768555 124.41876953 -58.94677734 125.47363281 C-58.87773893 133.66889822 -56.9869806 140.80161565 -51.203125 146.87109375 C-50.59855469 147.5259375 -49.99398438 148.18078125 -49.37109375 148.85546875 C-48.71753906 149.54125 -48.06398438 150.22703125 -47.390625 150.93359375 C-29.14022545 170.28502289 -23.78326331 184.73384103 -24.390625 210.93359375 C-24.57830599 217.24611575 -24.85803518 223.55477701 -25.1484375 229.86328125 C-25.19008467 230.77320768 -25.23173183 231.68313412 -25.27464104 232.62063408 C-26.41584827 257.08138917 -28.30718761 281.48802815 -30.17816162 305.90167236 C-30.91154464 315.48872221 -31.63345399 325.07664432 -32.35616875 334.6645031 C-32.60503077 337.95346172 -32.85668119 341.24219652 -33.10890198 344.53089905 C-33.80397148 353.6449611 -34.47564129 362.75780418 -34.98681641 371.88427734 C-35.02573533 372.57876763 -35.06465425 373.27325792 -35.10475254 373.98879337 C-35.47500754 380.95534727 -35.64585626 387.92069744 -35.68579102 394.89624023 C-35.69748085 396.31235611 -35.71818938 397.72842251 -35.74731445 399.14428711 C-36.02291251 412.43573813 -36.02291251 412.43573813 -29.74414062 423.76538086 C-24.51897169 428.79404907 -18.63798742 431.02630933 -11.453125 431.37109375 C-3.58943889 431.10534706 3.20287395 427.59155996 8.609375 421.93359375 C13.10949139 414.8081642 13.22849665 407.77850811 13.109375 399.55859375 C13.1041684 398.87255066 13.09896179 398.18650757 13.09359741 397.47967529 C12.8323771 366.92074647 9.79000756 336.36663428 7.46640778 305.90930367 C6.97115 299.41749496 6.47705541 292.92559857 5.984375 286.43359375 C5.93045845 285.72386539 5.8765419 285.01413704 5.82099152 284.28290176 C4.0194549 260.54335549 2.42190209 236.80887142 1.67510986 213.00933838 C1.61180977 211.01047772 1.5421166 209.01182264 1.47216797 207.01318359 C1.36415809 203.65312745 1.28904973 200.2948896 1.234375 196.93359375 C1.20819092 196.04389893 1.18200684 195.1542041 1.1550293 194.23754883 C1.11128204 177.70270428 11.84568061 165.32026723 22.609375 153.93359375 C34.93379755 140.39078722 36.4099908 130.28635963 35.80029297 112.32177734 C34.14412079 82.93001588 24.38896408 41.76357836 1.609375 20.93359375 C-3.1905866 16.83950886 -7.50842234 15.01796449 -13.87890625 15.3984375 C-23.88797903 17.53100822 -29.76542289 26.59959593 -35.1640625 34.54296875 Z " fill="#000000" transform="translate(355.390625,33.06640625)"/>
<path d="M0 0 C2.12890625 0.46484375 2.12890625 0.46484375 4.69140625 2.27734375 C8.84423406 11.48578804 5.59161979 25.03472444 4.83253479 34.91944313 C4.59284881 38.04710738 4.35905464 41.1751638 4.12683105 44.3033905 C3.46615619 53.19174863 2.79671362 62.07942983 2.11962891 70.96655273 C1.704159 76.42526578 1.29684591 81.88454175 0.8941803 87.34421349 C0.74096752 89.40004009 0.58478139 91.45564778 0.42527771 93.51099586 C-0.39683299 104.11178203 -1.04346414 114.70538532 -1.21679688 125.33862305 C-1.24454948 126.22397893 -1.27230209 127.10933481 -1.30089569 128.02151966 C-1.34517096 135.75462694 0.8918779 142.70993745 6.31640625 148.40234375 C6.92097656 149.0571875 7.52554688 149.71203125 8.1484375 150.38671875 C8.80199219 151.0725 9.45554688 151.75828125 10.12890625 152.46484375 C28.3793058 171.81627289 33.73626794 186.26509103 33.12890625 212.46484375 C32.94122526 218.77736575 32.66149607 225.08602701 32.37109375 231.39453125 C32.32944658 232.30445768 32.28779942 233.21438412 32.24489021 234.15188408 C31.10368298 258.61263917 29.21234364 283.01927815 27.34136963 307.43292236 C26.60798661 317.01997221 25.88607726 326.60789432 25.1633625 336.1957531 C24.91450048 339.48471172 24.66285006 342.77344652 24.41062927 346.06214905 C23.12218538 362.95716991 21.92089143 379.84970691 21.77880859 396.79980469 C21.76204045 398.25764699 21.73448671 399.71540059 21.69677734 401.17285156 C21.46954845 410.09998308 21.54784282 417.97596291 27.12890625 425.46484375 C32.98321453 431.04670866 39.52605358 432.96217852 47.53515625 432.78125 C54.31326798 431.95440203 59.88555715 428.79933976 64.12890625 423.46484375 C68.67943992 416.31400513 68.75641215 409.96137608 68.62890625 401.65234375 C68.62369965 400.94012665 68.61849304 400.22790955 68.61312866 399.49411011 C68.35943395 368.77213771 65.32161421 338.06407492 62.98593903 307.44482803 C62.49065668 300.95159636 61.99659262 294.45827291 61.50390625 287.96484375 C61.4499897 287.25504868 61.39607315 286.5452536 61.34052277 285.81394958 C59.53905154 262.07446264 57.94143138 238.34005896 57.19464111 214.54058838 C57.13134102 212.54172772 57.06164785 210.54307264 56.99169922 208.54443359 C56.88368934 205.18437745 56.80858098 201.8261396 56.75390625 198.46484375 C56.72772217 197.57514893 56.70153809 196.6854541 56.67456055 195.76879883 C56.63231585 179.80186751 66.7211429 167.53693242 77.12890625 156.46484375 C86.17325386 146.47988399 91.51778428 139.4541232 91.34960938 125.54199219 C91.34310616 124.57639248 91.33660294 123.61079277 91.32990265 122.61593246 C91.19855937 111.78958888 90.42468533 101.02179328 89.59765625 90.23046875 C89.4399112 88.0887431 89.28298687 85.94695686 89.12683105 83.80511475 C88.71932967 78.23890108 88.30299871 72.67338882 87.88397217 67.10803223 C87.21157164 58.16296517 86.55102559 49.21702635 85.8941803 40.27080536 C85.6650735 37.17197795 85.43093418 34.07356172 85.19616699 30.97515869 C85.05444857 29.06580759 84.91287978 27.15644537 84.77148438 25.24707031 C84.67330162 23.97828537 84.67330162 23.97828537 84.57313538 22.68386841 C83.4270992 6.99051125 83.4270992 6.99051125 85.56640625 2.33984375 C88.80435367 -0.02938607 90.98302324 -0.13197332 94.91015625 -0.19921875 C98.21059074 0.78858735 99.22842474 2.64645414 101.12890625 5.46484375 C101.77905273 8.31811523 101.77905273 8.31811523 102 11.5859375 C102.14538208 13.52581543 102.14538208 13.52581543 102.29370117 15.50488281 C102.38499606 16.97067869 102.47588056 18.43650017 102.56640625 19.90234375 C102.67590893 21.47113982 102.78706271 23.03982131 102.8996582 24.60839844 C103.16261632 28.30787834 103.41441484 32.00796471 103.66210938 35.70849609 C104.15170334 42.91775367 104.70259601 50.12211723 105.25230217 57.32696724 C105.60411987 61.95571813 105.94916451 66.58497755 106.29381657 71.21426678 C106.58059717 75.06561279 106.86940421 78.91677464 107.16378784 82.76754761 C108.27240976 97.32573309 109.33055841 111.87387425 109.4609375 126.48046875 C109.47734787 127.45747742 109.49375824 128.43448608 109.51066589 129.44110107 C109.4773229 141.82459528 105.01068474 153.12993731 96.54296875 162.25 C94.67617789 164.06711435 92.79974921 165.87437721 90.9140625 167.671875 C83.94669013 174.65879119 75.23262491 184.25568603 74.66796875 194.58203125 C75.13199169 231.90518965 78.07113975 269.16650508 80.91644287 306.36425781 C81.6493299 315.96125485 82.37169568 325.55905016 83.09445 335.15681458 C83.34336975 338.45019786 83.59501133 341.74336336 83.84718323 345.03649902 C85.16478423 362.33981069 86.33601802 379.61241337 86.42407227 396.97167969 C86.43570754 398.56128762 86.45633635 400.15085316 86.4855957 401.74023438 C86.72043663 414.61843851 85.9074031 426.14950878 77.17578125 436.4296875 C68.39627395 445.15893044 57.83767476 449.5153758 45.50390625 449.71484375 C33.47481978 449.59662177 22.7752054 445.52605826 13.94921875 437.375 C4.43351173 427.38963363 3.58211707 415.19446191 3.69140625 402.02734375 C3.69546982 400.85996674 3.69546982 400.85996674 3.69961548 399.66900635 C3.83289867 373.55393324 6.15103186 347.48984416 8.12890625 321.46484375 C8.1816848 320.7696891 8.23446335 320.07453445 8.28884125 319.35831451 C8.61611607 315.04791055 8.94391997 310.73754696 9.27187347 306.4271946 C9.71228227 300.63793077 10.15203501 294.84861758 10.59052277 289.05920792 C10.69935315 287.62251221 10.80827532 286.18582345 10.91728973 284.74914169 C12.69303929 261.33349983 14.29526018 237.9224566 15.06317139 214.4487915 C15.1262299 212.54561879 15.19602252 210.6426728 15.26611328 208.73974609 C15.37305386 205.60625301 15.44868335 202.47461903 15.50390625 199.33984375 C15.53009033 198.51637451 15.55627441 197.69290527 15.58325195 196.84448242 C15.62468788 182.62275058 2.48569215 170.95647909 -6.7890625 161.51171875 C-19.14855157 148.52470595 -19.44112268 133.9077271 -19.03436279 117.08789062 C-18.50981922 100.13791533 -16.96452121 83.20230848 -15.68444824 66.29693604 C-15.34780198 61.82527439 -15.01935042 57.35302786 -14.69128513 52.88072968 C-14.011649 43.6171324 -13.32683062 34.35390658 -12.62719727 25.09179688 C-12.56533737 24.26157516 -12.50347748 23.43135345 -12.43974304 22.57597351 C-12.25936378 20.20474722 -12.06800063 17.83475214 -11.87109375 15.46484375 C-11.79957533 14.57039047 -11.72805691 13.67593719 -11.65437126 12.75437927 C-11.57623255 11.86472977 -11.49809383 10.97508026 -11.41758728 10.05847168 C-11.34899978 9.25346977 -11.28041227 8.44846786 -11.20974636 7.61907196 C-10.15854894 0.93222216 -6.0754715 -0.41036957 0 0 Z " fill="#000000" transform="translate(122.87109375,31.53515625)"/>
<path d="M0 0 C0.66 -0.0103125 1.32 -0.020625 2 -0.03125 C5.09576952 0.79106378 6.08574953 1.90274496 8 4.5 C8.61072755 7.80623789 8.54611118 11.08337527 8.51757812 14.4375 C8.5245874 15.44603027 8.53159668 16.45456055 8.53881836 17.49365234 C8.55643218 20.82938114 8.5447631 24.16426248 8.53125 27.5 C8.53394393 29.81640791 8.53782551 32.13281472 8.54284668 34.44921875 C8.54874634 39.30479698 8.54016338 44.16008096 8.52148438 49.015625 C8.49869496 55.24364646 8.51181548 61.47097845 8.53577423 67.69897461 C8.55021932 72.48247485 8.54563205 77.26581127 8.53526306 82.04931641 C8.53259223 84.34586671 8.535878 86.64243183 8.54518127 88.93896484 C8.55532527 92.1472114 8.53987483 95.35433706 8.51757812 98.5625 C8.52567505 99.51431152 8.53377197 100.46612305 8.54211426 101.44677734 C8.45920542 107.87695009 8.45920542 107.87695009 6.09265137 111.08789062 C3.8323576 112.61312415 2.7019348 113.04221773 0 113 C-0.66 113.0103125 -1.32 113.020625 -2 113.03125 C-5.09576952 112.20893622 -6.08574953 111.09725504 -8 108.5 C-8.61072755 105.19376211 -8.54611118 101.91662473 -8.51757812 98.5625 C-8.5245874 97.55396973 -8.53159668 96.54543945 -8.53881836 95.50634766 C-8.55643218 92.17061886 -8.5447631 88.83573752 -8.53125 85.5 C-8.53394393 83.18359209 -8.53782551 80.86718528 -8.54284668 78.55078125 C-8.54874634 73.69520302 -8.54016338 68.83991904 -8.52148438 63.984375 C-8.49869496 57.75635354 -8.51181548 51.52902155 -8.53577423 45.30102539 C-8.55021932 40.51752515 -8.54563205 35.73418873 -8.53526306 30.95068359 C-8.53259223 28.65413329 -8.535878 26.35756817 -8.54518127 24.06103516 C-8.55532527 20.8527886 -8.53987483 17.64566294 -8.51757812 14.4375 C-8.52567505 13.48568848 -8.53377197 12.53387695 -8.54211426 11.55322266 C-8.45920542 5.12304991 -8.45920542 5.12304991 -6.09265137 1.91210938 C-3.8323576 0.38687585 -2.7019348 -0.04221773 0 0 Z " fill="#000000" transform="translate(184,31.5)"/>
<path d="M0 0 C0.66 -0.0103125 1.32 -0.020625 2 -0.03125 C5.09576952 0.79106378 6.08574953 1.90274496 8 4.5 C8.61072755 7.80623789 8.54611118 11.08337527 8.51757812 14.4375 C8.5245874 15.44603027 8.53159668 16.45456055 8.53881836 17.49365234 C8.55643218 20.82938114 8.5447631 24.16426248 8.53125 27.5 C8.53394393 29.81640791 8.53782551 32.13281472 8.54284668 34.44921875 C8.54874634 39.30479698 8.54016338 44.16008096 8.52148438 49.015625 C8.49869496 55.24364646 8.51181548 61.47097845 8.53577423 67.69897461 C8.55021932 72.48247485 8.54563205 77.26581127 8.53526306 82.04931641 C8.53259223 84.34586671 8.535878 86.64243183 8.54518127 88.93896484 C8.55532527 92.1472114 8.53987483 95.35433706 8.51757812 98.5625 C8.52567505 99.51431152 8.53377197 100.46612305 8.54211426 101.44677734 C8.45920542 107.87695009 8.45920542 107.87695009 6.09265137 111.08789062 C3.8323576 112.61312415 2.7019348 113.04221773 0 113 C-0.66 113.0103125 -1.32 113.020625 -2 113.03125 C-5.09576952 112.20893622 -6.08574953 111.09725504 -8 108.5 C-8.61072755 105.19376211 -8.54611118 101.91662473 -8.51757812 98.5625 C-8.5245874 97.55396973 -8.53159668 96.54543945 -8.53881836 95.50634766 C-8.55643218 92.17061886 -8.5447631 88.83573752 -8.53125 85.5 C-8.53394393 83.18359209 -8.53782551 80.86718528 -8.54284668 78.55078125 C-8.54874634 73.69520302 -8.54016338 68.83991904 -8.52148438 63.984375 C-8.49869496 57.75635354 -8.51181548 51.52902155 -8.53577423 45.30102539 C-8.55021932 40.51752515 -8.54563205 35.73418873 -8.53526306 30.95068359 C-8.53259223 28.65413329 -8.535878 26.35756817 -8.54518127 24.06103516 C-8.55532527 20.8527886 -8.53987483 17.64566294 -8.51757812 14.4375 C-8.52567505 13.48568848 -8.53377197 12.53387695 -8.54211426 11.55322266 C-8.45920542 5.12304991 -8.45920542 5.12304991 -6.09265137 1.91210938 C-3.8323576 0.38687585 -2.7019348 -0.04221773 0 0 Z " fill="#000000" transform="translate(152,31.5)"/>
</svg>
